<?xml version="1.0" encoding="UTF-8"?>
<svg width="1357px" height="210px" viewBox="0 0 1357 210" version="1.1" xmlns="http://www.w3.org/2000/svg" xmlns:xlink="http://www.w3.org/1999/xlink">
    <title>PulseChain</title>
    <g id="Page-1" stroke="none" stroke-width="1" fill="none" fill-rule="evenodd">
        <path d="M36.12,204 L36.12,121.96 L63.28,121.96 C73.7333333,121.96 83.6266667,120.933333 92.96,118.88 C102.293333,116.826667 110.46,113.513333 117.46,108.94 C124.46,104.366667 130.013333,98.3466667 134.12,90.88 C138.226667,83.4133333 140.28,74.1733333 140.28,63.16 C140.28,52.8933333 138.506667,44.12 134.96,36.84 C131.413333,29.56 126.373333,23.5866667 119.84,18.92 C113.306667,14.2533333 105.466667,10.8933333 96.32,8.84 C87.1733333,6.78666667 76.9066667,5.76 65.52,5.76 L65.52,5.76 L0.84,5.76 L0.84,204 L36.12,204 Z M57.76,92.28 L33.12,92.28 L33.12,35.44 L58.88,35.44 C64.2933333,35.44 69.5666667,35.7666667 74.7,36.42 C79.8333333,37.0733333 84.4066667,38.4266667 88.42,40.48 C92.4333333,42.5333333 95.6533333,45.38 98.08,49.02 C100.506667,52.66 101.72,57.3733333 101.72,63.16 C101.72,69.1333333 100.506667,73.9866667 98.08,77.72 C95.6533333,81.4533333 92.3866667,84.3933333 88.28,86.54 C84.1733333,88.6866667 79.5066667,90.18 74.28,91.02 C69.0533333,91.86 63.5466667,92.28 57.76,92.28 L57.76,92.28 Z M213.08,207.92 C223.16,207.92 231.886667,205.353333 239.26,200.22 C246.633333,195.086667 251.813333,189.16 254.8,182.44 L254.8,182.44 L255.36,182.44 L255.36,204 L287.28,204 L287.28,69.6 L253.68,69.6 L253.68,143.52 C253.68,148 253.026667,152.433333 251.72,156.82 C250.413333,161.206667 248.5,165.08 245.98,168.44 C243.46,171.8 240.193333,174.553333 236.18,176.7 C232.166667,178.846667 227.546667,179.92 222.32,179.92 C216.906667,179.92 212.566667,178.8 209.3,176.56 C206.033333,174.32 203.466667,171.473333 201.6,168.02 C199.733333,164.566667 198.52,160.693333 197.96,156.4 C197.4,152.106667 197.12,148 197.12,144.08 L197.12,144.08 L197.12,69.6 L163.52,69.6 L163.52,153.6 C163.52,160.506667 164.453333,167.226667 166.32,173.76 C168.186667,180.293333 171.126667,186.08 175.14,191.12 C179.153333,196.16 184.286667,200.22 190.54,203.3 C196.793333,206.38 204.306667,207.92 213.08,207.92 Z M351.76,204 L351.76,6 L318.16,6 L318.16,204 L351.76,204 Z M427.84,207.92 C435.12,207.92 442.166667,207.126667 448.98,205.54 C455.793333,203.953333 461.766667,201.386667 466.9,197.84 C472.033333,194.293333 476.14,189.673333 479.22,183.98 C482.3,178.286667 483.84,171.333333 483.84,163.12 C483.84,156.586667 482.533333,151.033333 479.92,146.46 C477.306667,141.886667 473.9,138.06 469.7,134.98 C465.5,131.9 460.833333,129.426667 455.7,127.56 C450.566667,125.693333 445.48,124.2 440.44,123.08 C430.92,120.84 423.686667,118.646667 418.74,116.5 C413.793333,114.353333 411.32,110.666667 411.32,105.44 C411.32,100.213333 413.56,96.48 418.04,94.24 C422.52,92 427.466667,90.88 432.88,90.88 C439.04,90.88 444.733333,92.3266667 449.96,95.22 C455.186667,98.1133333 459.293333,101.52 462.28,105.44 L462.28,105.44 L484.12,86.12 C478.706667,79.2133333 471.38,74.08 462.14,70.72 C452.9,67.36 443.426667,65.68 433.72,65.68 C427,65.68 420.466667,66.52 414.12,68.2 C407.773333,69.88 402.08,72.4466667 397.04,75.9 C392,79.3533333 387.94,83.7866667 384.86,89.2 C381.78,94.6133333 380.24,101.053333 380.24,108.52 C380.24,114.866667 381.36,120.186667 383.6,124.48 C385.84,128.773333 388.826667,132.366667 392.56,135.26 C396.293333,138.153333 400.54,140.486667 405.3,142.26 C410.06,144.033333 414.96,145.48 420,146.6 C430.266667,149.026667 437.966667,151.453333 443.1,153.88 C448.233333,156.306667 450.8,160.32 450.8,165.92 C450.8,168.906667 450.146667,171.426667 448.84,173.48 C447.533333,175.533333 445.806667,177.166667 443.66,178.38 C441.513333,179.593333 439.18,180.48 436.66,181.04 C434.14,181.6 431.666667,181.88 429.24,181.88 C421.96,181.88 415.333333,180.293333 409.36,177.12 C403.386667,173.946667 398.533333,169.933333 394.8,165.08 L394.8,165.08 L372.68,185.8 C379.213333,192.893333 387.426667,198.353333 397.32,202.18 C407.213333,206.006667 417.386667,207.92 427.84,207.92 Z M574.36,207.92 C599.56,207.92 618.786667,198.96 632.04,181.04 L632.04,181.04 L609.64,163.12 C605.906667,168.533333 601.146667,172.78 595.36,175.86 C589.573333,178.94 582.48,180.48 574.08,180.48 C569.226667,180.48 564.56,179.64 560.08,177.96 C555.6,176.28 551.586667,173.993333 548.04,171.1 C544.493333,168.206667 541.646667,164.753333 539.5,160.74 C537.353333,156.726667 536.093333,152.293333 535.72,147.44 L535.72,147.44 L637.92,147.44 C638.106667,145.946667 638.2,144.453333 638.2,142.96 L638.2,142.96 L638.2,138.48 C638.2,126.346667 636.566667,115.753333 633.3,106.7 C630.033333,97.6466667 625.506667,90.0866667 619.72,84.02 C613.933333,77.9533333 607.073333,73.38 599.14,70.3 C591.206667,67.22 582.573333,65.68 573.24,65.68 C563.16,65.68 553.78,67.4066667 545.1,70.86 C536.42,74.3133333 528.906667,79.1666667 522.56,85.42 C516.213333,91.6733333 511.22,99.2333333 507.58,108.1 C503.94,116.966667 502.12,126.813333 502.12,137.64 C502.12,148.653333 503.94,158.5 507.58,167.18 C511.22,175.86 516.26,183.186667 522.7,189.16 C529.14,195.133333 536.746667,199.753333 545.52,203.02 C554.293333,206.286667 563.906667,207.92 574.36,207.92 Z M607.6,123.36 L538.72,123.36 C539.466667,113.84 543.34,106.046667 550.34,99.98 C557.34,93.9133333 565.88,90.88 575.96,90.88 C581.373333,90.88 586.086667,91.7666667 590.1,93.54 C594.113333,95.3133333 597.426667,97.6933333 600.04,100.68 C602.653333,103.666667 604.566667,107.12 605.78,111.04 C606.993333,114.96 607.6,119.066667 607.6,123.36 L607.6,123.36 Z M768.68,209.04 C785.666667,209.04 800.506667,206.006667 813.2,199.94 C825.893333,193.873333 836.626667,185.333333 845.4,174.32 L845.4,174.32 L817.12,154.44 C812.08,161.346667 805.453333,166.9 797.24,171.1 C789.026667,175.3 779.6,177.4 768.96,177.4 C758.693333,177.4 749.453333,175.626667 741.24,172.08 C733.026667,168.533333 725.98,163.54 720.1,157.1 C714.22,150.66 709.693333,142.96 706.52,134 C703.346667,125.04 701.76,115.146667 701.76,104.32 C701.76,94.0533333 703.393333,84.5333333 706.66,75.76 C709.926667,66.9866667 714.593333,59.3333333 720.66,52.8 C726.726667,46.2666667 733.96,41.1333333 742.36,37.4 C750.76,33.6666667 760.093333,31.8 770.36,31.8 C778.386667,31.8 786.6,33.4333333 795,36.7 C803.4,39.9666667 810.213333,45.1466667 815.44,52.24 L815.44,52.24 L842.32,30.96 C838.4,25.7333333 833.64,21.2533333 828.04,17.52 C822.44,13.7866667 816.466667,10.66 810.12,8.14 C803.773333,5.62 797.146667,3.75333333 790.24,2.54 C783.333333,1.32666667 776.706667,0.72 770.36,0.72 C755.053333,0.72 740.866667,3.14666667 727.8,8 C714.733333,12.8533333 703.393333,19.76 693.78,28.72 C684.166667,37.68 676.606667,48.5533333 671.1,61.34 C665.593333,74.1266667 662.84,88.4533333 662.84,104.32 C662.84,119.813333 665.453333,133.953333 670.68,146.74 C675.906667,159.526667 683.186667,170.54 692.52,179.78 C701.853333,189.02 713.006667,196.206667 725.98,201.34 C738.953333,206.473333 753.186667,209.04 768.68,209.04 Z M903.72,204 L903.72,130.64 C903.72,126.16 904.373333,121.773333 905.68,117.48 C906.986667,113.186667 908.946667,109.313333 911.56,105.86 C914.173333,102.406667 917.44,99.6533333 921.36,97.6 C925.28,95.5466667 929.946667,94.52 935.36,94.52 C940.773333,94.52 945.113333,95.64 948.38,97.88 C951.646667,100.12 954.166667,102.966667 955.94,106.42 C957.713333,109.873333 958.88,113.7 959.44,117.9 C960,122.1 960.28,126.16 960.28,130.08 L960.28,204 L993.88,204 L993.88,120 C993.88,113.093333 992.946667,106.373333 991.08,99.84 C989.213333,93.3066667 986.273333,87.52 982.26,82.48 C978.246667,77.44 973.113333,73.38 966.86,70.3 C960.606667,67.22 953.093333,65.68 944.32,65.68 C939.28,65.68 934.613333,66.3333333 930.32,67.64 C926.026667,68.9466667 922.2,70.6733333 918.84,72.82 C915.48,74.9666667 912.54,77.3933333 910.02,80.1 C907.5,82.8066667 905.586667,85.56 904.28,88.36 L903.72,88.36 L903.72,0.19346448 L870.12,0.19346448 L870.12,204 L903.72,204 Z M1067.96,207.36 C1077.48,207.36 1085.97333,205.446667 1093.44,201.62 C1100.90667,197.793333 1106.32,192.893333 1109.68,186.92 L1110.52,186.92 L1110.52,204 L1141.88,204 L1141.88,122.24 C1141.88,115.52 1140.99333,108.8 1139.22,102.08 C1137.44667,95.36 1134.32,89.2933333 1129.84,83.88 C1125.36,78.4666667 1119.24667,74.08 1111.5,70.72 C1103.75333,67.36 1093.90667,65.68 1081.96,65.68 C1071.69333,65.68 1061.56667,67.4533333 1051.58,71 C1041.59333,74.5466667 1032.77333,79.8666667 1025.12,86.96 L1042.48,107.4 C1046.77333,103.106667 1052.18667,99.4666667 1058.72,96.48 C1065.25333,93.4933333 1072.06667,92 1079.16,92 C1087.56,92 1094.79333,94.0066667 1100.86,98.02 C1106.92667,102.033333 1109.96,108.24 1109.96,116.64 L1109.96,120 C1099.50667,120 1088.82,120.513333 1077.9,121.54 C1066.98,122.566667 1057.04,124.666667 1048.08,127.84 C1039.12,131.013333 1031.79333,135.586667 1026.1,141.56 C1020.40667,147.533333 1017.56,155.56 1017.56,165.64 C1017.56,173.48 1019.19333,180.06 1022.46,185.38 C1025.72667,190.7 1029.83333,194.993333 1034.78,198.26 C1039.72667,201.526667 1045.14,203.86 1051.02,205.26 C1056.9,206.66 1062.54667,207.36 1067.96,207.36 Z M1074.68,181.88 C1071.88,181.88 1069.08,181.6 1066.28,181.04 C1063.48,180.48 1060.96,179.546667 1058.72,178.24 C1056.48,176.933333 1054.66,175.206667 1053.26,173.06 C1051.86,170.913333 1051.16,168.253333 1051.16,165.08 C1051.16,160.04 1052.84,156.073333 1056.2,153.18 C1059.56,150.286667 1063.76,148.046667 1068.8,146.46 C1073.84,144.873333 1079.34667,143.846667 1085.32,143.38 C1091.29333,142.913333 1096.98667,142.68 1102.4,142.68 L1102.4,142.68 L1109.96,142.68 L1109.96,147.44 C1109.96,158.08 1106.97333,166.48 1101,172.64 C1095.02667,178.8 1086.25333,181.88 1074.68,181.88 Z M1187.16,44.12 C1193.32,44.12 1198.5,42.2066667 1202.7,38.38 C1206.9,34.5533333 1209,29.7466667 1209,23.96 C1209,18.1733333 1206.9,13.3666667 1202.7,9.54 C1198.5,5.71333333 1193.32,3.8 1187.16,3.8 C1181,3.8 1175.91333,5.80666667 1171.9,9.82 C1167.88667,13.8333333 1165.88,18.5466667 1165.88,23.96 C1165.88,29.3733333 1167.88667,34.0866667 1171.9,38.1 C1175.91333,42.1133333 1181,44.12 1187.16,44.12 Z M1204.24,204 L1204.24,69.6 L1170.64,69.6 L1170.64,204 L1204.24,204 Z M1266.72,204 L1266.72,130.08 C1266.72,125.6 1267.37333,121.166667 1268.68,116.78 C1269.98667,112.393333 1271.9,108.52 1274.42,105.16 C1276.94,101.8 1280.16,99.0466667 1284.08,96.9 C1288,94.7533333 1292.66667,93.68 1298.08,93.68 C1303.49333,93.68 1307.83333,94.8 1311.1,97.04 C1314.36667,99.28 1316.93333,102.126667 1318.8,105.58 C1320.66667,109.033333 1321.88,112.906667 1322.44,117.2 C1323,121.493333 1323.28,125.6 1323.28,129.52 L1323.28,204 L1356.88,204 L1356.88,120 C1356.88,113.093333 1355.94667,106.373333 1354.08,99.84 C1352.21333,93.3066667 1349.27333,87.52 1345.26,82.48 C1341.24667,77.44 1336.11333,73.38 1329.86,70.3 C1323.60667,67.22 1316.09333,65.68 1307.32,65.68 C1297.24,65.68 1288.51333,68.2466667 1281.14,73.38 C1276.22444,76.8022222 1270.85778,81.49429 1265.04,87.4562033 L1265.04,69.6 L1233.12,69.6 L1233.12,204 L1266.72,204 Z" id="PulseChain" fill="#FFFFFF" fill-rule="nonzero"></path>
    </g>
</svg>